# xmcd CD database file
#
# Track frame offsets:
#	150
#	62860
#	99518
#	138378
#
# Disc length: 2227 seconds
#
# Revision: 0
# Processed by: cddbd v1.5.1PL0 Copyright (c) Steve Scherf et al.
# Submitted via: CDex 1.51
#
DISCID=3308b104
DTITLE=Futile Escape with Friends and Drunks - Blues From the Heath Hit Factory
DYEAR=2004
DGENRE=Blues
TTITLE0=Blues Hit No.1
TTITLE1=Blues a Bit Slower
TTITLE2=Blues With Fire
TTITLE3=Blues with a touch of Rock
EXTD=YEAR: 2004
EXTT0=
EXTT1=
EXTT2=
EXTT3=
PLAYORDER=
